<?xml version="1.0"?>
<svg xmlns="http://www.w3.org/2000/svg" xmlns:xlink="http://www.w3.org/1999/xlink" version="1.1" id="Capa_1" x="0px" y="0px" viewBox="0 0 512 512" style="enable-background:new 0 0 512 512;" xml:space="preserve" width="512px" height="512px" class=""><g><g>
	<g>
		<path d="M501.981,153.224h-53.031c1.007-6.63,1.521-13.36,1.521-20.122c0-73.328-59.656-132.984-132.984-132.984    S184.503,59.773,184.503,133.101c0,6.764,0.514,13.494,1.521,20.122h-81.09c-0.026,0-0.051,0-0.077,0H10.019    C4.486,153.223,0,157.709,0,163.242V501.84c-0.001,0.34,0.017,0.68,0.05,1.019c0.011,0.111,0.033,0.218,0.047,0.329    c0.028,0.214,0.055,0.429,0.098,0.641c0.028,0.141,0.067,0.278,0.101,0.416c0.043,0.179,0.084,0.358,0.137,0.535    c0.042,0.139,0.094,0.273,0.142,0.409c0.061,0.173,0.119,0.347,0.189,0.517c0.052,0.124,0.113,0.243,0.169,0.366    c0.081,0.175,0.16,0.352,0.252,0.523c0.06,0.111,0.128,0.216,0.192,0.326c0.101,0.173,0.2,0.347,0.313,0.514    c0.074,0.111,0.157,0.214,0.236,0.322c0.114,0.156,0.223,0.314,0.348,0.465c0.12,0.146,0.252,0.281,0.381,0.421    c0.092,0.1,0.176,0.205,0.274,0.303c0.082,0.082,0.172,0.153,0.256,0.231c0.155,0.145,0.309,0.293,0.472,0.428    c0.148,0.122,0.304,0.229,0.457,0.342c0.11,0.081,0.216,0.167,0.331,0.243c0.163,0.109,0.333,0.205,0.501,0.305    c0.114,0.067,0.224,0.139,0.341,0.201c0.165,0.088,0.335,0.164,0.504,0.242c0.128,0.06,0.254,0.124,0.386,0.179    c0.161,0.067,0.326,0.121,0.489,0.179c0.146,0.052,0.29,0.108,0.439,0.153c0.161,0.049,0.325,0.085,0.487,0.125    c0.155,0.039,0.308,0.082,0.465,0.113c0.184,0.036,0.37,0.058,0.555,0.085c0.139,0.02,0.276,0.046,0.417,0.06    c0.329,0.032,0.659,0.05,0.99,0.05h276.346c0.003,0,0.007,0,0.01,0c0.003,0,0.007,0,0.01,0h215.596    c5.532,0,10.019-4.485,10.019-10.019v-338.62C512,157.71,507.514,153.224,501.981,153.224z M317.488,20.155    c62.279,0,112.946,50.667,112.946,112.946c0,9.396-1.15,18.711-3.422,27.695c-3.251,12.914-11.942,29.45-18.699,39.451    c-0.053,0.075-0.105,0.15-0.156,0.227l-90.669,134.596l-55.344-82.148c-0.022-0.034-0.046-0.068-0.068-0.101l-5.573-8.273    l-29.682-44.074c-0.109-0.163-0.225-0.325-0.347-0.482c-8.711-11.83-14.938-25.017-18.511-39.207    c-2.27-8.975-3.42-18.289-3.42-27.685C204.541,70.822,255.208,20.155,317.488,20.155z M190.689,173.263v-0.001    c4.372,13.85,10.958,26.813,19.653,38.619l29.541,43.864l0.94,1.396l-13.937,13.923l-97.801-97.8H190.689z M104.895,177.409    l107.814,107.814l-80.265,80.181L24.672,257.634L104.895,177.409z M20.037,173.262h60.669l-60.669,60.668V173.262z     M20.037,281.337l98.23,98.23l-98.23,98.127V281.337z M491.963,491.845h-181.4l113.099-113.099l68.301,68.302V491.845z     M491.963,418.71l-54.132-54.133l54.132-54.133V418.71z M491.963,282.107L282.225,491.845H34.223l105.278-105.168    c0.008-0.008,0.017-0.014,0.025-0.022s0.014-0.016,0.022-0.024l112.681-112.563l56.95,84.532c1.862,2.764,4.977,4.421,8.31,4.421    c3.332,0,6.447-1.657,8.309-4.421l98.846-146.735c0.041-0.059,0.083-0.119,0.123-0.179c6.289-9.267,14.523-24.075,19.407-38.426    h47.789V282.107z" data-original="#000000" class="active-path" data-old_color="#000000" fill="#352649"/>
	</g>
</g><g>
	<g>
		<path d="M378.625,123.87c-3.195-31.459-29.478-55.182-61.136-55.182c-33.885,0-61.452,27.567-61.452,61.452    c0,14.462,5.126,28.51,14.428,39.553c11.711,13.918,28.852,21.901,47.024,21.901c11.283,0,22.317-3.088,31.909-8.929    c4.727-2.877,6.225-9.041,3.347-13.768c-2.876-4.726-9.04-6.225-13.767-3.347c-6.453,3.929-13.883,6.006-21.489,6.006    c-12.246,0-23.797-5.382-31.697-14.768c-6.267-7.439-9.718-16.902-9.718-26.647c0-22.837,18.579-41.415,41.415-41.415    c21.337,0,39.05,15.979,41.201,37.168c0.56,5.504,5.461,9.527,10.98,8.955C375.174,134.29,379.184,129.375,378.625,123.87z" data-original="#000000" class="active-path" data-old_color="#000000" fill="#352649"/>
	</g>
</g><g>
	<g>
		<path d="M363.99,143.112c-5.532,0-10.019,4.485-10.019,10.019v0.2c0,5.533,4.486,10.019,10.019,10.019s10.019-4.485,10.019-10.019    v-0.2C374.008,147.598,369.522,143.112,363.99,143.112z" data-original="#000000" class="active-path" data-old_color="#000000" fill="#352649"/>
	</g>
</g></g> </svg>
