<?xml version="1.0"?>
<svg xmlns="http://www.w3.org/2000/svg" xmlns:xlink="http://www.w3.org/1999/xlink" version="1.1" id="Capa_1" x="0px" y="0px" viewBox="0 0 512 512" style="enable-background:new 0 0 512 512;" xml:space="preserve" width="512px" height="512px" class=""><g><g>
	<g>
		<path d="M471.998,104c0-2.047-0.781-4.094-2.342-5.656l-96-96c-1.5-1.499-3.534-2.342-5.654-2.342c-0.001,0-0.001,0-0.002,0V0H64    C50.745,0,40,10.745,40,24v464c0,13.255,10.745,24,24,24h384c13.255,0,24-10.745,24-24V104H471.998z M376,27.312L444.688,96H384    c-4.418,0-8-3.582-8-8V27.312z M456,488c0,4.418-3.582,8-8,8H64c-4.418,0-8-3.582-8-8V24c0-4.418,3.582-8,8-8h296v72    c0,13.255,10.745,24,24,24h72V488z" data-original="#000000" class="active-path" data-old_color="#000000" fill="#352649"/>
	</g>
</g><g>
	<g>
		<path d="M144,40H96c-4.418,0-8,3.582-8,8v48c0,4.418,3.582,8,8,8h48c4.418,0,8-3.582,8-8V48C152,43.582,148.418,40,144,40z     M136,88h-32V56h32V88z" data-original="#000000" class="active-path" data-old_color="#000000" fill="#352649"/>
	</g>
</g><g>
	<g>
		<path d="M288,48H176c-4.418,0-8,3.582-8,8v16h16v-8h96v8h16V56C296,51.582,292.418,48,288,48z" data-original="#000000" class="active-path" data-old_color="#000000" fill="#352649"/>
	</g>
</g><g>
	<g>
		<rect x="168" y="88" width="128" height="16" data-original="#000000" class="active-path" data-old_color="#000000" fill="#352649"/>
	</g>
</g><g>
	<g>
		<path d="M359.2,340.424l-8-16c-0.848-1.686-2.265-3.018-4-3.76l-53.12-22.984l-4.275-13.251C303.645,273.244,312,254.687,312,232    v-16v-48c0-2.122-0.844-4.156-2.344-5.656C294.713,149.702,275.555,143.152,256,144c-19.555-0.848-38.712,5.702-53.656,18.344    c-1.5,1.5-2.344,3.534-2.344,5.656v48v16c0,22.68,8.35,41.232,22.182,52.419l-4.278,13.261l-53.064,22.984    c-1.735,0.742-3.152,2.074-4,3.76l-8,16c-0.554,1.111-0.841,2.335-0.84,3.576v120h16V345.888l5.84-11.704l48.173-20.859    L248,339.312V368h16v-28.688l25.984-25.984l48.168,20.856L344,345.888V464h16V344C360.014,342.762,359.74,341.538,359.2,340.424z     M216,171.728c11.731-8.097,25.754-12.209,40-11.728c14.245-0.483,28.268,3.625,40,11.72v35.125c-4-1.052-8-3.053-8-6.845    c0-4.418-3.582-8-8-8h-48c-4.418,0-8,3.582-8,8c0,3.792-4,5.792-8,6.845V171.728z M256,324.688l-22.696-22.696l3.049-9.462    c6.011,2.259,12.599,3.47,19.647,3.47c7.043,0,13.627-1.21,19.635-3.466l3.053,9.465L256,324.688z M256,280    c-29.52,0-40-25.856-40-48v-8.744c9.621-0.924,18.114-6.67,22.552-15.256h34.896c4.438,8.586,12.931,14.332,22.552,15.256V232    C296,254.144,285.52,280,256,280z" data-original="#000000" class="active-path" data-old_color="#000000" fill="#352649"/>
	</g>
</g><g>
	<g>
		<rect x="192" y="416" width="16" height="48" data-original="#000000" class="active-path" data-old_color="#000000" fill="#352649"/>
	</g>
</g><g>
	<g>
		<rect x="304" y="416" width="16" height="48" data-original="#000000" class="active-path" data-old_color="#000000" fill="#352649"/>
	</g>
</g><g>
	<g>
		<path d="M416,168h-80v16h72v32h-72v16h80c4.418,0,8-3.582,8-8v-48C424,171.582,420.418,168,416,168z" data-original="#000000" class="active-path" data-old_color="#000000" fill="#352649"/>
	</g>
</g><g>
	<g>
		<path d="M176,184v-16H96c-4.418,0-8,3.582-8,8v48c0,4.418,3.582,8,8,8h80v-16h-72v-32H176z" data-original="#000000" class="active-path" data-old_color="#000000" fill="#352649"/>
	</g>
</g><g>
	<g>
		<rect x="88" y="256" width="64" height="16" data-original="#000000" class="active-path" data-old_color="#000000" fill="#352649"/>
	</g>
</g><g>
	<g>
		<rect x="328" y="256" width="96" height="16" data-original="#000000" class="active-path" data-old_color="#000000" fill="#352649"/>
	</g>
</g><g>
	<g>
		<rect x="376" y="336" width="48" height="16" data-original="#000000" class="active-path" data-old_color="#000000" fill="#352649"/>
	</g>
</g><g>
	<g>
		<rect x="376" y="376" width="48" height="16" data-original="#000000" class="active-path" data-old_color="#000000" fill="#352649"/>
	</g>
</g><g>
	<g>
		<rect x="88" y="296" width="64" height="16" data-original="#000000" class="active-path" data-old_color="#000000" fill="#352649"/>
	</g>
</g><g>
	<g>
		<rect x="360" y="296" width="64" height="16" data-original="#000000" class="active-path" data-old_color="#000000" fill="#352649"/>
	</g>
</g><g>
	<g>
		<rect x="88" y="336" width="48" height="16" data-original="#000000" class="active-path" data-old_color="#000000" fill="#352649"/>
	</g>
</g><g>
	<g>
		<rect x="88" y="376" width="48" height="16" data-original="#000000" class="active-path" data-old_color="#000000" fill="#352649"/>
	</g>
</g></g> </svg>
