<?xml version="1.0"?>
<svg xmlns="http://www.w3.org/2000/svg" height="512px" viewBox="1 -110 511.99984 511" width="512px" class=""><g><path d="m463.5 16.667969h-332.175781c-4.660157-.003907-9.097657 2.003906-12.171875 5.511719l-99.023438 113.171874c-5.34375 6.097657-5.34375 15.210938 0 21.308594l99.023438 113.171875c3.070312 3.507813 7.507812 5.515625 12.171875 5.511719h332.175781c17.855469 0 32.332031-14.476562 32.332031-32.335938v-194.003906c0-17.859375-14.476562-32.335937-32.332031-32.335937zm0 0" fill="#bddbff" data-original="#BDDBFF" class="" style="fill:#352649" data-old_color="#BDDBFF"/><path d="m463.5 291.511719h-332.175781c-9.328125.003906-18.203125-4.023438-24.347657-11.042969l-99.023437-113.171875c-10.605469-12.214844-10.605469-30.367187 0-42.582031l99.023437-113.171875c6.144532-7.019531 15.019532-11.046875 24.347657-11.042969h332.175781c26.785156 0 48.5 21.714844 48.5 48.5v194.007812c0 26.789063-21.714844 48.503907-48.5 48.503907zm-332.175781-258.675781-99.023438 113.171874 99.023438 113.167969h332.175781c8.925781 0 16.167969-7.238281 16.167969-16.167969v-194.003906c0-8.929687-7.242188-16.167968-16.167969-16.167968zm0 0" fill="#3d9ae2" data-original="#3D9AE2" class="active-path" style="fill:#FBFBFB" data-old_color="#4D4E4F"/></g> </svg>
